# Blender v2.79 (sub 0) OBJ File: ''
# www.blender.org
mtllib Rock2.mtl
o Cube.001
v -0.800000 0.000000 0.800000
v -1.000000 0.000000 0.800000
v -1.000000 0.000000 1.000000
v -0.800000 0.000000 1.000000
v -0.600000 0.000000 0.800000
v -0.600000 0.000000 1.000000
v -0.400000 0.049467 0.800000
v -0.400000 0.000000 1.000000
v -0.200000 0.000000 0.800000
v -0.200000 0.000000 1.000000
v 0.000000 0.000000 0.800000
v 0.000000 0.000000 1.000000
v 0.000000 0.000000 0.000000
v -0.200000 0.000000 0.000000
v -0.200000 0.000000 0.200000
v 0.000000 0.000000 0.200000
v -0.200000 0.000000 0.400000
v 0.000000 0.000000 0.400000
v -0.200000 0.000000 0.600000
v 0.000000 0.000000 0.600000
v -0.400000 0.000000 0.000000
v -0.400000 0.000000 0.200000
v -0.400000 0.168331 0.400000
v -0.400000 0.000000 0.600000
v -0.600000 0.000000 0.000000
v -0.600000 0.000000 0.200000
v -0.600000 0.000000 0.400000
v -0.600000 0.134148 0.600000
v -0.800000 0.000000 0.000000
v -0.800000 0.000000 0.200000
v -0.800000 0.000000 0.400000
v -0.800000 0.000000 0.600000
v -1.000000 0.000000 0.000000
v -1.000000 0.000000 0.200000
v -1.000000 0.000000 0.400000
v -1.000000 0.000000 0.600000
vt 0.200067 0.198626
vt 0.000170 0.198626
vt 0.000170 -0.001271
vt 0.200067 -0.001271
vt 0.399963 0.198626
vt 0.399963 -0.001271
vt 0.599860 0.198626
vt 0.599860 -0.001271
vt 0.799757 0.198626
vt 0.799757 -0.001271
vt 0.999653 0.198626
vt 0.999653 -0.001271
vt 0.999653 0.998212
vt 0.799757 0.998212
vt 0.799757 0.798315
vt 0.999653 0.798315
vt 0.799757 0.598419
vt 0.999653 0.598419
vt 0.799757 0.398522
vt 0.999653 0.398522
vt 0.599860 0.998212
vt 0.599860 0.798316
vt 0.599860 0.598419
vt 0.599860 0.398522
vt 0.399964 0.998212
vt 0.399964 0.798316
vt 0.399963 0.598419
vt 0.399963 0.398522
vt 0.200067 0.998212
vt 0.200067 0.798316
vt 0.200067 0.598419
vt 0.200067 0.398522
vt 0.000171 0.998213
vt 0.000170 0.798316
vt 0.000170 0.598419
vt 0.000170 0.398522
vn 0.0000 1.0000 0.0000
vn -0.1218 0.9850 0.1218
vn 0.1218 0.9850 0.1218
vn 0.3616 0.8593 -0.3616
vn 0.3616 0.8593 0.3616
vn 0.1218 0.9850 -0.1218
vn -0.3616 0.8593 -0.3616
vn -0.0848 0.9928 0.0848
vn 0.2028 0.9580 0.2028
vn -0.3030 0.9035 -0.3030
vn -0.3030 0.9035 0.3030
usemtl Material.001
s 1
f 1/1/1 2/2/1 3/3/1 4/4/1
f 5/5/1 1/1/1 4/4/1 6/6/1
f 7/7/2 5/5/2 6/6/2 8/8/2
f 9/9/3 7/7/3 8/8/3 10/10/3
f 11/11/1 9/9/1 10/10/1 12/12/1
f 13/13/1 14/14/1 15/15/1 16/16/1
f 16/16/1 15/15/1 17/17/1 18/18/1
f 18/18/1 17/17/1 19/19/1 20/20/1
f 20/20/1 19/19/1 9/9/1 11/11/1
f 14/14/1 21/21/1 22/22/1 15/15/1
f 15/15/4 22/22/4 23/23/4 17/17/4
f 17/17/5 23/23/5 24/24/5 19/19/5
f 19/19/6 24/24/6 7/7/6 9/9/6
f 21/21/1 25/25/1 26/26/1 22/22/1
f 22/22/7 26/26/7 27/27/7 23/23/7
f 23/23/8 27/27/8 28/28/8 24/24/8
f 24/24/9 28/28/9 5/5/9 7/7/9
f 25/25/1 29/29/1 30/30/1 26/26/1
f 26/26/1 30/30/1 31/31/1 27/27/1
f 27/27/10 31/31/10 32/32/10 28/28/10
f 28/28/11 32/32/11 1/1/11 5/5/11
f 29/29/1 33/33/1 34/34/1 30/30/1
f 30/30/1 34/34/1 35/35/1 31/31/1
f 31/31/1 35/35/1 36/36/1 32/32/1
f 32/32/1 36/36/1 2/2/1 1/1/1
